<?xml version="1.0" encoding="utf-8"?>
<svg viewBox="209.512 154.736 103.009 36.139" width="103.009" height="36.139" xmlns="http://www.w3.org/2000/svg">
  <path d="M 211.738 170.335 L 211.738 159.135 L 213.05 159.135 L 220.458 168.335 L 219.77 168.335 L 219.77 159.135 L 221.37 159.135 L 221.37 170.335 L 220.058 170.335 L 212.65 161.135 L 213.338 161.135 L 213.338 170.335 Z" style="fill: rgb(51, 51, 51); white-space: pre;"/>
  <path d="M 236.371 170.463 Q 235.091 170.463 233.995 170.031 Q 232.899 169.599 232.099 168.823 Q 231.299 168.047 230.851 167.007 Q 230.403 165.967 230.403 164.735 Q 230.403 163.503 230.851 162.463 Q 231.299 161.423 232.099 160.647 Q 232.899 159.871 233.987 159.439 Q 235.075 159.007 236.371 159.007 Q 237.651 159.007 238.731 159.431 Q 239.811 159.855 240.619 160.631 Q 241.427 161.407 241.867 162.447 Q 242.307 163.487 242.307 164.735 Q 242.307 165.983 241.867 167.023 Q 241.427 168.063 240.619 168.839 Q 239.811 169.615 238.731 170.039 Q 237.651 170.463 236.371 170.463 Z M 236.371 169.039 Q 237.299 169.039 238.091 168.719 Q 238.883 168.399 239.467 167.815 Q 240.051 167.231 240.379 166.447 Q 240.707 165.663 240.707 164.735 Q 240.707 163.807 240.379 163.023 Q 240.051 162.239 239.467 161.655 Q 238.883 161.071 238.091 160.751 Q 237.299 160.431 236.371 160.431 Q 235.427 160.431 234.635 160.751 Q 233.843 161.071 233.251 161.655 Q 232.659 162.239 232.331 163.023 Q 232.003 163.807 232.003 164.735 Q 232.003 165.663 232.331 166.447 Q 232.659 167.231 233.251 167.815 Q 233.843 168.399 234.635 168.719 Q 235.427 169.039 236.371 169.039 Z" style="fill: rgb(51, 51, 51); white-space: pre;"/>
  <path d="M 252.81 163.967 L 258.57 163.967 L 258.57 165.327 L 252.81 165.327 Z M 252.954 168.943 L 259.482 168.943 L 259.482 170.335 L 251.354 170.335 L 251.354 159.135 L 259.258 159.135 L 259.258 160.527 L 252.954 160.527 Z" style="fill: rgb(51, 51, 51); white-space: pre;"/>
  <path d="M 268.668 170.335 L 268.668 159.135 L 270.268 159.135 L 270.268 168.943 L 276.332 168.943 L 276.332 170.335 Z" style="fill: rgb(51, 51, 51); white-space: pre;"/>
  <path d="M 284.769 170.335 L 284.769 159.135 L 286.369 159.135 L 286.369 170.335 Z" style="fill: rgb(51, 51, 51); white-space: pre;"/>
  <path d="M 294.624 170.335 L 299.696 159.135 L 301.28 159.135 L 306.368 170.335 L 304.688 170.335 L 300.16 160.031 L 300.8 160.031 L 296.272 170.335 Z M 296.784 167.535 L 297.216 166.255 L 303.52 166.255 L 303.984 167.535 Z" style="fill: rgb(51, 51, 51); white-space: pre;"/>
  <path d="M 210.632 186.796 L 212.872 175.596 L 217.512 175.596 Q 219.08 175.596 219.976 176.188 Q 220.872 176.78 220.872 177.932 Q 220.872 179.02 220.336 179.756 Q 219.8 180.492 218.928 180.86 Q 218.056 181.228 217.016 181.228 L 217.352 180.94 Q 218.76 180.94 219.576 181.54 Q 220.392 182.14 220.392 183.34 Q 220.392 184.46 219.824 185.228 Q 219.256 185.996 218.2 186.396 Q 217.144 186.796 215.672 186.796 Z M 211.592 186.092 L 215.752 186.092 Q 217.592 186.092 218.584 185.388 Q 219.576 184.684 219.576 183.372 Q 219.576 182.332 218.856 181.9 Q 218.136 181.468 216.744 181.468 L 212.36 181.468 L 212.504 180.764 L 216.472 180.764 Q 217.512 180.764 218.312 180.46 Q 219.112 180.156 219.568 179.556 Q 220.024 178.956 220.024 178.06 Q 220.024 177.18 219.328 176.74 Q 218.632 176.3 217.368 176.3 L 213.544 176.3 Z" style="fill: rgb(51, 51, 51); white-space: pre;"/>
  <path d="M 226.066 186.86 Q 224.898 186.86 224.034 186.436 Q 223.17 186.012 222.714 185.228 Q 222.258 184.444 222.258 183.356 Q 222.258 181.932 222.858 180.812 Q 223.458 179.692 224.49 179.036 Q 225.522 178.38 226.818 178.38 Q 227.922 178.38 228.706 178.796 Q 229.49 179.212 229.93 179.988 Q 230.37 180.764 230.37 181.868 Q 230.37 182.108 230.338 182.348 Q 230.306 182.588 230.274 182.796 L 222.866 182.796 L 222.978 182.172 L 229.89 182.172 L 229.57 182.444 Q 229.746 181.34 229.426 180.596 Q 229.106 179.852 228.426 179.46 Q 227.746 179.068 226.802 179.068 Q 225.714 179.068 224.858 179.62 Q 224.002 180.172 223.522 181.124 Q 223.042 182.076 223.042 183.324 Q 223.042 184.684 223.826 185.412 Q 224.61 186.14 226.13 186.14 Q 227.026 186.14 227.77 185.844 Q 228.514 185.548 228.994 185.02 L 229.362 185.58 Q 228.818 186.172 227.946 186.516 Q 227.074 186.86 226.066 186.86 Z" style="fill: rgb(51, 51, 51); white-space: pre;"/>
  <path d="M 235.421 186.86 Q 234.349 186.86 233.533 186.444 Q 232.717 186.028 232.269 185.244 Q 231.821 184.46 231.821 183.388 Q 231.821 182.3 232.165 181.388 Q 232.509 180.476 233.149 179.804 Q 233.789 179.132 234.653 178.756 Q 235.517 178.38 236.541 178.38 Q 237.645 178.38 238.413 178.772 Q 239.181 179.164 239.589 179.908 Q 239.997 180.652 239.997 181.708 Q 240.013 183.196 239.445 184.364 Q 238.877 185.532 237.845 186.196 Q 236.813 186.86 235.421 186.86 Z M 235.581 186.14 Q 236.717 186.14 237.597 185.596 Q 238.477 185.052 238.989 184.084 Q 239.501 183.116 239.501 181.9 Q 239.501 180.556 238.725 179.828 Q 237.949 179.1 236.541 179.1 Q 235.421 179.1 234.533 179.652 Q 233.645 180.204 233.133 181.164 Q 232.621 182.124 232.621 183.34 Q 232.621 184.668 233.397 185.404 Q 234.173 186.14 235.581 186.14 Z M 238.621 186.796 L 239.133 184.188 L 239.597 182.732 L 239.709 181.196 L 240.253 178.444 L 241.053 178.444 L 239.389 186.796 Z" style="fill: rgb(51, 51, 51); white-space: pre;"/>
  <path d="M 246.194 186.86 Q 245.09 186.86 244.378 186.42 Q 243.666 185.98 243.41 185.172 Q 243.154 184.364 243.362 183.276 L 244.322 178.444 L 245.122 178.444 L 244.162 183.276 Q 243.906 184.604 244.458 185.372 Q 245.01 186.14 246.402 186.14 Q 247.826 186.14 248.778 185.348 Q 249.73 184.556 250.034 182.988 L 250.946 178.444 L 251.746 178.444 L 250.082 186.796 L 249.298 186.796 L 249.778 184.38 L 249.986 184.588 Q 249.394 185.772 248.41 186.316 Q 247.426 186.86 246.194 186.86 Z" style="fill: rgb(51, 51, 51); white-space: pre;"/>
  <path d="M 255.919 186.86 Q 255.231 186.86 254.759 186.572 Q 254.287 186.284 254.111 185.74 Q 253.935 185.196 254.079 184.444 L 255.647 176.62 L 256.447 176.62 L 254.895 184.38 Q 254.719 185.26 255.015 185.716 Q 255.311 186.172 256.111 186.172 Q 256.495 186.172 256.839 186.052 Q 257.183 185.932 257.471 185.708 L 257.711 186.3 Q 257.327 186.604 256.855 186.732 Q 256.383 186.86 255.919 186.86 Z M 253.599 179.132 L 253.727 178.444 L 258.735 178.444 L 258.607 179.132 Z" style="fill: rgb(51, 51, 51); white-space: pre;"/>
  <path d="M 258.951 189.964 Q 258.391 189.964 257.879 189.772 Q 257.367 189.58 257.063 189.228 L 257.527 188.636 Q 257.799 188.956 258.175 189.108 Q 258.551 189.26 259.031 189.26 Q 259.591 189.26 260.063 188.956 Q 260.535 188.652 261.079 187.82 L 261.959 186.492 L 262.087 186.348 L 267.191 178.444 L 268.023 178.444 L 261.783 188.028 Q 261.303 188.764 260.863 189.188 Q 260.423 189.612 259.967 189.788 Q 259.511 189.964 258.951 189.964 Z M 261.847 187.004 L 259.671 178.444 L 260.487 178.444 L 262.455 186.3 Z" style="fill: rgb(51, 51, 51); white-space: pre;"/>
  <path d="M 283.019 175.596 L 283.835 175.596 L 281.595 186.796 L 280.779 186.796 Z M 273.291 186.796 L 272.475 186.796 L 274.715 175.596 L 275.531 175.596 Z M 281.947 181.468 L 274.251 181.468 L 274.395 180.748 L 282.091 180.748 Z" style="fill: rgb(51, 51, 51); white-space: pre;"/>
  <path d="M 288.689 186.86 Q 287.617 186.86 286.801 186.444 Q 285.985 186.028 285.537 185.244 Q 285.089 184.46 285.089 183.388 Q 285.089 182.3 285.433 181.388 Q 285.777 180.476 286.417 179.804 Q 287.057 179.132 287.921 178.756 Q 288.785 178.38 289.809 178.38 Q 290.913 178.38 291.681 178.772 Q 292.449 179.164 292.857 179.908 Q 293.265 180.652 293.265 181.708 Q 293.281 183.196 292.713 184.364 Q 292.145 185.532 291.113 186.196 Q 290.081 186.86 288.689 186.86 Z M 288.849 186.14 Q 289.985 186.14 290.865 185.596 Q 291.745 185.052 292.257 184.084 Q 292.769 183.116 292.769 181.9 Q 292.769 180.556 291.993 179.828 Q 291.217 179.1 289.809 179.1 Q 288.689 179.1 287.801 179.652 Q 286.913 180.204 286.401 181.164 Q 285.889 182.124 285.889 183.34 Q 285.889 184.668 286.665 185.404 Q 287.441 186.14 288.849 186.14 Z M 291.889 186.796 L 292.401 184.188 L 292.865 182.732 L 292.977 181.196 L 293.521 178.444 L 294.321 178.444 L 292.657 186.796 Z" style="fill: rgb(51, 51, 51); white-space: pre;"/>
  <path d="M 296.017 186.796 L 297.681 178.444 L 298.481 178.444 L 296.817 186.796 Z M 298.577 176.412 Q 298.321 176.412 298.145 176.236 Q 297.969 176.06 297.969 175.82 Q 297.969 175.532 298.169 175.324 Q 298.369 175.116 298.673 175.116 Q 298.945 175.116 299.121 175.292 Q 299.297 175.468 299.297 175.708 Q 299.297 176.012 299.089 176.212 Q 298.881 176.412 298.577 176.412 Z" style="fill: rgb(51, 51, 51); white-space: pre;"/>
  <path d="M 300.193 186.796 L 301.857 178.444 L 302.641 178.444 L 302.129 180.956 L 302.033 180.668 Q 302.577 179.532 303.505 178.956 Q 304.433 178.38 305.841 178.38 L 305.697 179.164 Q 305.633 179.164 305.569 179.156 Q 305.505 179.148 305.441 179.148 Q 304.033 179.148 303.113 179.988 Q 302.193 180.828 301.857 182.508 L 300.993 186.796 Z" style="fill: rgb(51, 51, 51); white-space: pre;"/>
</svg>